<svg xmlns="http://www.w3.org/2000/svg" width="110" height="68" viewBox="0 0 110 68">
    <g fill="none" fill-rule="evenodd">
        <path fill="#FFF" d="M68.45 7.015C70.354 6 72.103 4.676 74.093 3.836c1.765-.804 4.001.845 3.792 2.79.012 8.517.016 17.035-.004 25.552.149 2.055-2.498 3.216-4.13 2.31-1.813-.978-3.614-1.993-5.355-3.093-.165-2.217-.129-4.442.016-6.654 1.18.641 2.373 1.27 3.622 1.778.254-2.436.081-4.88.117-7.324-.028-2.444.113-4.897-.113-7.337-1.313.532-2.514 1.292-3.706 2.059-1.874 1.104-3.743 2.225-5.637 3.305-1.056.625-2.285 1.047-3.135 1.977.69 1.01 2.063 1.348 3.07 2.014.045 2.204.02 4.409-.004 6.613-3.114-1.494-5.991-3.43-9-5.12-1.141-.714-2.656-1.295-2.99-2.764-.504-1.43.572-2.793 1.744-3.467 3.393-2.124 6.959-3.95 10.323-6.115 1.922-1.108 3.848-2.2 5.745-3.345z"/>
        <path fill="#DC0510" d="M31.643 4.153c-.085-1.94 1.789-3.61 3.683-3.39 9.815.012 19.626-.004 29.44.012 1.395-.081 2.749.767 3.329 2.034.528 1.336.403 2.801.354 4.206-1.897 1.145-3.823 2.237-5.745 3.345a76.41 76.41 0 0 1-.121-3.723c-4.912-.28-9.84-.04-14.755-.121-3.445.073-6.902-.163-10.339.154.025 8.367.029 16.735-.004 25.102 5.722.317 11.463.04 17.193.134 2.643-.073 5.298.17 7.93-.134-.009-1.315.007-2.63.02-3.946.023-2.204.048-4.409.003-6.613-.02-1.332.008-2.664.065-3.991 1.894-1.08 3.763-2.2 5.637-3.305.012 3.605.31 7.214.08 10.824-.145 2.212-.181 4.437-.016 6.654.145 1.806.282 3.987-1.132 5.359-.64.69-1.563 1.023-2.494.974-9.82-.004-19.634-.012-29.453 0-2.067.146-3.768-1.9-3.703-3.901.008-9.89-.053-19.784.028-29.674z"/>
        <path fill="#FFF" d="M44 55.538h4.875v12.366h5.267V55.538h4.924v-4.442H44v4.442zm18.505 12.366l1.25-3.146h5.585l1.225 3.146h5.658L69.143 51h-5.021l-7.055 16.904h5.438zm4.042-10.997l1.25 3.986h-2.524l1.274-3.986zM85.248 68l6.86-16.904h-5.66l-3.6 10.013-3.577-10.013h-5.855L80.251 68h4.997zm19.632-6.675c1.96-.96 3.136-2.713 3.136-4.826 0-1.561-.588-2.858-1.764-3.866-1.176-1.033-2.744-1.537-4.679-1.537h-8.28v16.808h5.267v-6.003h.735l4.556 6.003H110l-5.12-6.58zm-6.32-3.194v-2.713h2.4c.98 0 1.642.504 1.642 1.345 0 .84-.661 1.368-1.641 1.368H98.56zM31.032 68v-8.257L37.676 68H42V51h-4.983v8.209L30.47 51H26v17zM24 68V51h-5v17zM5.112 68v-7.334L10.723 68H17l-7.085-9.107L15.81 51H9.796l-4.684 6.339V51H0v17z"/>
    </g>
</svg>
